# xmcd
#
# Track frame offsets:
# 150
# 17982
# 35407
#
# Disc length: 674 seconds
#
#
# Revision: 5
# Processed by: cddbd v1.5.1PL0 Copyright (c) Steve Scherf et al.
# Submitted via: FreeRIP 2.53 
#
DISCID=1d02a003
DTITLE=Less is More - The Arnold EP
DYEAR=2004
DGENRE=Heavy Metal
TTITLE0=Female dog
TTITLE1=Point Taken
TTITLE2=More Than This
EXTD=
EXTT0=
EXTT1=
EXTT2=
PLAYORDER=
